<?xml version="1.0" encoding="UTF-8"?>
<svg xmlns="http://www.w3.org/2000/svg" width="880" height="972" viewBox="0 0 880 972">
  <rect width="100%" height="100%" fill="#f1f5f9"/>
  <text x="36" y="22" font-size="15" font-family="system-ui,sans-serif" font-weight="700" fill="#0f172a">05 Trick 1 card — CURRENT vs PROPOSED V2</text>
  <text x="36" y="40" font-size="10" font-family="ui-monospace,Consolas,monospace" fill="#475569">390×844 portrait · LEFT=CURRENT · RIGHT=PROPOSED V2 (not implemented)</text>
  <g transform="translate(36,64)">
    <text x="0" y="-6" font-size="11" font-family="system-ui,sans-serif" font-weight="600" fill="#1e293b">CURRENT</text>
    <rect x="-1" y="-1" width="392" height="846" fill="none" stroke="#94a3b8" stroke-width="1"/>
    <rect x="0" y="0" width="390" height="844" fill="#111827"/><rect x="0" y="0" width="390" height="118.16" fill="#1d4ed8" fill-opacity="0.45" stroke="#93c5fd" stroke-width="1.2"/>
  <text x="3" y="11" font-size="8" font-family="ui-monospace,Consolas,monospace" fill="#93c5fd">HUD</text><rect x="8" y="6" width="70" height="34" rx="4" fill="#0f172a" stroke="#64748b"/>
  <text x="43" y="19" text-anchor="middle" font-size="8" fill="#94a3b8">NÓS</text>
  <text x="43" y="32" text-anchor="middle" font-size="12" fill="#e2e8f0" font-weight="700">42</text><rect x="160" y="6" width="70" height="34" rx="4" fill="#0f172a" stroke="#64748b"/>
  <text x="195" y="19" text-anchor="middle" font-size="8" fill="#94a3b8">Vaza</text>
  <text x="195" y="32" text-anchor="middle" font-size="12" fill="#e2e8f0" font-weight="700">3/10</text><rect x="312" y="6" width="70" height="34" rx="4" fill="#0f172a" stroke="#64748b"/>
  <text x="347" y="19" text-anchor="middle" font-size="8" fill="#94a3b8">ELES</text>
  <text x="347" y="32" text-anchor="middle" font-size="12" fill="#e2e8f0" font-weight="700">31</text><rect x="8" y="44" width="374" height="24" rx="4" fill="#0f172a" stroke="#475569"/>
    <text x="195" y="60" text-anchor="middle" font-size="9" fill="#e2e8f0">Trunfo ♥ · Ronda 2 · Meta 4</text><rect x="0" y="118.16" width="390" height="388.24" fill="#0f766e" fill-opacity="0.5" stroke="#5eead4" stroke-width="1.2"/>
  <text x="3" y="129.16" font-size="8" font-family="ui-monospace,Consolas,monospace" fill="#5eead4">felt</text><rect x="117" y="118.16" width="156" height="85.41" fill="#4c1d95" fill-opacity="0.2" stroke="#c4b5fd" stroke-width="1.2"/>
  <text x="120" y="129.16" font-size="8" font-family="ui-monospace,Consolas,monospace" fill="#c4b5fd">N</text><rect x="7.8" y="234.63" width="85.8" height="139.77" fill="#4c1d95" fill-opacity="0.2" stroke="#c4b5fd" stroke-width="1.2"/>
  <text x="10.8" y="245.63" font-size="8" font-family="ui-monospace,Consolas,monospace" fill="#c4b5fd">W</text><rect x="296.4" y="234.63" width="85.8" height="139.77" fill="#4c1d95" fill-opacity="0.2" stroke="#c4b5fd" stroke-width="1.2"/>
  <text x="299.4" y="245.63" font-size="8" font-family="ui-monospace,Consolas,monospace" fill="#c4b5fd">E</text><rect x="113.1" y="506.4" width="163.8" height="84.4" fill="#4c1d95" fill-opacity="0.25" stroke="#c4b5fd" stroke-width="1.2"/>
  <text x="116.1" y="517.4" font-size="8" font-family="ui-monospace,Consolas,monospace" fill="#c4b5fd">S</text><rect x="97.94" y="215.22" width="194.12" height="194.12" fill="#854d0e" fill-opacity="0.18" stroke="#fcd34d" stroke-width="1.2"/>
  <text x="100.94" y="226.22" font-size="8" font-family="ui-monospace,Consolas,monospace" fill="#fcd34d">trick</text><rect x="0" y="590.8" width="390" height="168.8" fill="#065f46" fill-opacity="0.22" stroke="#6ee7b7" stroke-width="1.2"/>
  <text x="3" y="601.8" font-size="8" font-family="ui-monospace,Consolas,monospace" fill="#6ee7b7">hand</text><rect x="0" y="759.6" width="390" height="84.4" fill="#334155" fill-opacity="0.35" stroke="#94a3b8" stroke-width="1.2"/>
  <text x="3" y="770.6" font-size="8" font-family="ui-monospace,Consolas,monospace" fill="#94a3b8">action</text><g transform="translate(147.2176,171.11419999999998) rotate(0)">
    <rect x="-15.86525" y="-22.2105" width="31.7305" height="44.421" rx="3.5" fill="#1e3a5f" stroke="#93c5fd" stroke-width="1"/>
    <rect x="-12.86525" y="-19.2105" width="8" height="10" rx="1" fill="none" stroke="#93c5fd" stroke-opacity="0.35" stroke-width="0.8"/>
  </g><g transform="translate(159.16320000000002,171.11419999999998) rotate(0)">
    <rect x="-15.86525" y="-22.2105" width="31.7305" height="44.421" rx="3.5" fill="#1e3a5f" stroke="#93c5fd" stroke-width="1"/>
    <rect x="-12.86525" y="-19.2105" width="8" height="10" rx="1" fill="none" stroke="#93c5fd" stroke-opacity="0.35" stroke-width="0.8"/>
  </g><g transform="translate(171.1088,171.11419999999998) rotate(0)">
    <rect x="-15.86525" y="-22.2105" width="31.7305" height="44.421" rx="3.5" fill="#1e3a5f" stroke="#93c5fd" stroke-width="1"/>
    <rect x="-12.86525" y="-19.2105" width="8" height="10" rx="1" fill="none" stroke="#93c5fd" stroke-opacity="0.35" stroke-width="0.8"/>
  </g><g transform="translate(183.0544,171.11419999999998) rotate(0)">
    <rect x="-15.86525" y="-22.2105" width="31.7305" height="44.421" rx="3.5" fill="#1e3a5f" stroke="#93c5fd" stroke-width="1"/>
    <rect x="-12.86525" y="-19.2105" width="8" height="10" rx="1" fill="none" stroke="#93c5fd" stroke-opacity="0.35" stroke-width="0.8"/>
  </g><g transform="translate(195,171.11419999999998) rotate(0)">
    <rect x="-15.86525" y="-22.2105" width="31.7305" height="44.421" rx="3.5" fill="#1e3a5f" stroke="#93c5fd" stroke-width="1"/>
    <rect x="-12.86525" y="-19.2105" width="8" height="10" rx="1" fill="none" stroke="#93c5fd" stroke-opacity="0.35" stroke-width="0.8"/>
  </g><g transform="translate(206.9456,171.11419999999998) rotate(0)">
    <rect x="-15.86525" y="-22.2105" width="31.7305" height="44.421" rx="3.5" fill="#1e3a5f" stroke="#93c5fd" stroke-width="1"/>
    <rect x="-12.86525" y="-19.2105" width="8" height="10" rx="1" fill="none" stroke="#93c5fd" stroke-opacity="0.35" stroke-width="0.8"/>
  </g><g transform="translate(218.8912,171.11419999999998) rotate(0)">
    <rect x="-15.86525" y="-22.2105" width="31.7305" height="44.421" rx="3.5" fill="#1e3a5f" stroke="#93c5fd" stroke-width="1"/>
    <rect x="-12.86525" y="-19.2105" width="8" height="10" rx="1" fill="none" stroke="#93c5fd" stroke-opacity="0.35" stroke-width="0.8"/>
  </g><g transform="translate(230.83679999999998,171.11419999999998) rotate(0)">
    <rect x="-15.86525" y="-22.2105" width="31.7305" height="44.421" rx="3.5" fill="#1e3a5f" stroke="#93c5fd" stroke-width="1"/>
    <rect x="-12.86525" y="-19.2105" width="8" height="10" rx="1" fill="none" stroke="#93c5fd" stroke-opacity="0.35" stroke-width="0.8"/>
  </g><g transform="translate(242.7824,171.11419999999998) rotate(0)">
    <rect x="-15.86525" y="-22.2105" width="31.7305" height="44.421" rx="3.5" fill="#1e3a5f" stroke="#93c5fd" stroke-width="1"/>
    <rect x="-12.86525" y="-19.2105" width="8" height="10" rx="1" fill="none" stroke="#93c5fd" stroke-opacity="0.35" stroke-width="0.8"/>
  </g><g transform="translate(50.699999999999996,236.51549999999997) rotate(0)">
    <rect x="-13.99875" y="-19.5975" width="27.9975" height="39.195" rx="3.5" fill="#1e3a5f" stroke="#93c5fd" stroke-width="1"/>
    <rect x="-10.99875" y="-16.5975" width="8" height="10" rx="1" fill="none" stroke="#93c5fd" stroke-opacity="0.35" stroke-width="0.8"/>
  </g><g transform="translate(50.699999999999996,246.96749999999997) rotate(0)">
    <rect x="-13.99875" y="-19.5975" width="27.9975" height="39.195" rx="3.5" fill="#1e3a5f" stroke="#93c5fd" stroke-width="1"/>
    <rect x="-10.99875" y="-16.5975" width="8" height="10" rx="1" fill="none" stroke="#93c5fd" stroke-opacity="0.35" stroke-width="0.8"/>
  </g><g transform="translate(50.699999999999996,257.41949999999997) rotate(0)">
    <rect x="-13.99875" y="-19.5975" width="27.9975" height="39.195" rx="3.5" fill="#1e3a5f" stroke="#93c5fd" stroke-width="1"/>
    <rect x="-10.99875" y="-16.5975" width="8" height="10" rx="1" fill="none" stroke="#93c5fd" stroke-opacity="0.35" stroke-width="0.8"/>
  </g><g transform="translate(50.699999999999996,267.87149999999997) rotate(0)">
    <rect x="-13.99875" y="-19.5975" width="27.9975" height="39.195" rx="3.5" fill="#1e3a5f" stroke="#93c5fd" stroke-width="1"/>
    <rect x="-10.99875" y="-16.5975" width="8" height="10" rx="1" fill="none" stroke="#93c5fd" stroke-opacity="0.35" stroke-width="0.8"/>
  </g><g transform="translate(50.699999999999996,278.32349999999997) rotate(0)">
    <rect x="-13.99875" y="-19.5975" width="27.9975" height="39.195" rx="3.5" fill="#1e3a5f" stroke="#93c5fd" stroke-width="1"/>
    <rect x="-10.99875" y="-16.5975" width="8" height="10" rx="1" fill="none" stroke="#93c5fd" stroke-opacity="0.35" stroke-width="0.8"/>
  </g><g transform="translate(50.699999999999996,288.77549999999997) rotate(0)">
    <rect x="-13.99875" y="-19.5975" width="27.9975" height="39.195" rx="3.5" fill="#1e3a5f" stroke="#93c5fd" stroke-width="1"/>
    <rect x="-10.99875" y="-16.5975" width="8" height="10" rx="1" fill="none" stroke="#93c5fd" stroke-opacity="0.35" stroke-width="0.8"/>
  </g><g transform="translate(50.699999999999996,299.22749999999996) rotate(0)">
    <rect x="-13.99875" y="-19.5975" width="27.9975" height="39.195" rx="3.5" fill="#1e3a5f" stroke="#93c5fd" stroke-width="1"/>
    <rect x="-10.99875" y="-16.5975" width="8" height="10" rx="1" fill="none" stroke="#93c5fd" stroke-opacity="0.35" stroke-width="0.8"/>
  </g><g transform="translate(50.699999999999996,309.67949999999996) rotate(0)">
    <rect x="-13.99875" y="-19.5975" width="27.9975" height="39.195" rx="3.5" fill="#1e3a5f" stroke="#93c5fd" stroke-width="1"/>
    <rect x="-10.99875" y="-16.5975" width="8" height="10" rx="1" fill="none" stroke="#93c5fd" stroke-opacity="0.35" stroke-width="0.8"/>
  </g><g transform="translate(50.699999999999996,320.13149999999996) rotate(0)">
    <rect x="-13.99875" y="-19.5975" width="27.9975" height="39.195" rx="3.5" fill="#1e3a5f" stroke="#93c5fd" stroke-width="1"/>
    <rect x="-10.99875" y="-16.5975" width="8" height="10" rx="1" fill="none" stroke="#93c5fd" stroke-opacity="0.35" stroke-width="0.8"/>
  </g><g transform="translate(50.699999999999996,330.58349999999996) rotate(0)">
    <rect x="-13.99875" y="-19.5975" width="27.9975" height="39.195" rx="3.5" fill="#1e3a5f" stroke="#93c5fd" stroke-width="1"/>
    <rect x="-10.99875" y="-16.5975" width="8" height="10" rx="1" fill="none" stroke="#93c5fd" stroke-opacity="0.35" stroke-width="0.8"/>
  </g><g transform="translate(339.29999999999995,236.51549999999997) rotate(0)">
    <rect x="-13.99875" y="-19.5975" width="27.9975" height="39.195" rx="3.5" fill="#1e3a5f" stroke="#93c5fd" stroke-width="1"/>
    <rect x="-10.99875" y="-16.5975" width="8" height="10" rx="1" fill="none" stroke="#93c5fd" stroke-opacity="0.35" stroke-width="0.8"/>
  </g><g transform="translate(339.29999999999995,246.96749999999997) rotate(0)">
    <rect x="-13.99875" y="-19.5975" width="27.9975" height="39.195" rx="3.5" fill="#1e3a5f" stroke="#93c5fd" stroke-width="1"/>
    <rect x="-10.99875" y="-16.5975" width="8" height="10" rx="1" fill="none" stroke="#93c5fd" stroke-opacity="0.35" stroke-width="0.8"/>
  </g><g transform="translate(339.29999999999995,257.41949999999997) rotate(0)">
    <rect x="-13.99875" y="-19.5975" width="27.9975" height="39.195" rx="3.5" fill="#1e3a5f" stroke="#93c5fd" stroke-width="1"/>
    <rect x="-10.99875" y="-16.5975" width="8" height="10" rx="1" fill="none" stroke="#93c5fd" stroke-opacity="0.35" stroke-width="0.8"/>
  </g><g transform="translate(339.29999999999995,267.87149999999997) rotate(0)">
    <rect x="-13.99875" y="-19.5975" width="27.9975" height="39.195" rx="3.5" fill="#1e3a5f" stroke="#93c5fd" stroke-width="1"/>
    <rect x="-10.99875" y="-16.5975" width="8" height="10" rx="1" fill="none" stroke="#93c5fd" stroke-opacity="0.35" stroke-width="0.8"/>
  </g><g transform="translate(339.29999999999995,278.32349999999997) rotate(0)">
    <rect x="-13.99875" y="-19.5975" width="27.9975" height="39.195" rx="3.5" fill="#1e3a5f" stroke="#93c5fd" stroke-width="1"/>
    <rect x="-10.99875" y="-16.5975" width="8" height="10" rx="1" fill="none" stroke="#93c5fd" stroke-opacity="0.35" stroke-width="0.8"/>
  </g><g transform="translate(339.29999999999995,288.77549999999997) rotate(0)">
    <rect x="-13.99875" y="-19.5975" width="27.9975" height="39.195" rx="3.5" fill="#1e3a5f" stroke="#93c5fd" stroke-width="1"/>
    <rect x="-10.99875" y="-16.5975" width="8" height="10" rx="1" fill="none" stroke="#93c5fd" stroke-opacity="0.35" stroke-width="0.8"/>
  </g><g transform="translate(339.29999999999995,299.22749999999996) rotate(0)">
    <rect x="-13.99875" y="-19.5975" width="27.9975" height="39.195" rx="3.5" fill="#1e3a5f" stroke="#93c5fd" stroke-width="1"/>
    <rect x="-10.99875" y="-16.5975" width="8" height="10" rx="1" fill="none" stroke="#93c5fd" stroke-opacity="0.35" stroke-width="0.8"/>
  </g><g transform="translate(339.29999999999995,309.67949999999996) rotate(0)">
    <rect x="-13.99875" y="-19.5975" width="27.9975" height="39.195" rx="3.5" fill="#1e3a5f" stroke="#93c5fd" stroke-width="1"/>
    <rect x="-10.99875" y="-16.5975" width="8" height="10" rx="1" fill="none" stroke="#93c5fd" stroke-opacity="0.35" stroke-width="0.8"/>
  </g><g transform="translate(339.29999999999995,320.13149999999996) rotate(0)">
    <rect x="-13.99875" y="-19.5975" width="27.9975" height="39.195" rx="3.5" fill="#1e3a5f" stroke="#93c5fd" stroke-width="1"/>
    <rect x="-10.99875" y="-16.5975" width="8" height="10" rx="1" fill="none" stroke="#93c5fd" stroke-opacity="0.35" stroke-width="0.8"/>
  </g><g transform="translate(339.29999999999995,330.58349999999996) rotate(0)">
    <rect x="-13.99875" y="-19.5975" width="27.9975" height="39.195" rx="3.5" fill="#1e3a5f" stroke="#93c5fd" stroke-width="1"/>
    <rect x="-10.99875" y="-16.5975" width="8" height="10" rx="1" fill="none" stroke="#93c5fd" stroke-opacity="0.35" stroke-width="0.8"/>
  </g><rect x="135" y="143.865" width="120" height="34" rx="6" fill="#1c1917" stroke="#d4a017" stroke-width="1.5"/>
  <text x="195" y="164.865" text-anchor="middle" font-size="9" font-family="system-ui,sans-serif" fill="#f5e6c8">Player 3</text><rect x="11.231999999999992" y="287.515" width="78.936" height="34" rx="6" fill="#1c1917" stroke="#d4a017" stroke-width="1.5"/>
  <text x="50.699999999999996" y="308.515" text-anchor="middle" font-size="9" font-family="system-ui,sans-serif" fill="#f5e6c8">Player 2</text><rect x="299.83199999999994" y="287.515" width="78.936" height="34" rx="6" fill="#1c1917" stroke="#d4a017" stroke-width="1.5"/>
  <text x="339.29999999999995" y="308.515" text-anchor="middle" font-size="9" font-family="system-ui,sans-serif" fill="#f5e6c8">Player 4</text><rect x="135" y="531.6" width="120" height="34" rx="6" fill="#1c1917" stroke="#d4a017" stroke-width="1.5"/>
  <text x="195" y="552.6" text-anchor="middle" font-size="9" font-family="system-ui,sans-serif" fill="#f5e6c8">Player 1</text><g transform="translate(195,353.28) rotate(0)">
    <rect x="-26.64" y="-37.295" width="53.28" height="74.59" rx="3.5" fill="#fef3c7" stroke="#92400e" stroke-width="1"/>
    <rect x="-23.64" y="-34.295" width="11.7216" height="13.4262" rx="1" fill="none" stroke="#92400e" stroke-opacity="0.35" stroke-width="0.8"/>
  </g><text x="195" y="226.22" text-anchor="middle" font-size="7" fill="#fde68a" font-family="ui-monospace,Consolas,monospace">margin 27×19</text><g transform="translate(66.542,693.4398) rotate(-3)">
    <rect x="-29.195" y="-40.87" width="58.39" height="81.74" rx="3.5" fill="#f8fafc" stroke="#111" stroke-width="1"/>
    <rect x="-26.195" y="-37.87" width="12.8458" height="14.713199999999999" rx="1" fill="none" stroke="#111" stroke-opacity="0.35" stroke-width="0.8"/>
  </g><g transform="translate(98.6565,693.0648) rotate(-2.25)">
    <rect x="-29.195" y="-40.87" width="58.39" height="81.74" rx="3.5" fill="#f8fafc" stroke="#111" stroke-width="1"/>
    <rect x="-26.195" y="-37.87" width="12.8458" height="14.713199999999999" rx="1" fill="none" stroke="#111" stroke-opacity="0.35" stroke-width="0.8"/>
  </g><g transform="translate(130.77100000000002,692.6898) rotate(-1.5)">
    <rect x="-29.195" y="-40.87" width="58.39" height="81.74" rx="3.5" fill="#f8fafc" stroke="#111" stroke-width="1"/>
    <rect x="-26.195" y="-37.87" width="12.8458" height="14.713199999999999" rx="1" fill="none" stroke="#111" stroke-opacity="0.35" stroke-width="0.8"/>
  </g><g transform="translate(162.8855,692.3148) rotate(-0.75)">
    <rect x="-29.195" y="-40.87" width="58.39" height="81.74" rx="3.5" fill="#f8fafc" stroke="#111" stroke-width="1"/>
    <rect x="-26.195" y="-37.87" width="12.8458" height="14.713199999999999" rx="1" fill="none" stroke="#111" stroke-opacity="0.35" stroke-width="0.8"/>
  </g><g transform="translate(195,691.9398) rotate(0)">
    <rect x="-29.195" y="-40.87" width="58.39" height="81.74" rx="3.5" fill="#f8fafc" stroke="#111" stroke-width="1"/>
    <rect x="-26.195" y="-37.87" width="12.8458" height="14.713199999999999" rx="1" fill="none" stroke="#111" stroke-opacity="0.35" stroke-width="0.8"/>
  </g><g transform="translate(227.1145,692.3148) rotate(0.75)">
    <rect x="-29.195" y="-40.87" width="58.39" height="81.74" rx="3.5" fill="#f8fafc" stroke="#111" stroke-width="1"/>
    <rect x="-26.195" y="-37.87" width="12.8458" height="14.713199999999999" rx="1" fill="none" stroke="#111" stroke-opacity="0.35" stroke-width="0.8"/>
  </g><g transform="translate(259.22900000000004,692.6898) rotate(1.5)">
    <rect x="-29.195" y="-40.87" width="58.39" height="81.74" rx="3.5" fill="#f8fafc" stroke="#111" stroke-width="1"/>
    <rect x="-26.195" y="-37.87" width="12.8458" height="14.713199999999999" rx="1" fill="none" stroke="#111" stroke-opacity="0.35" stroke-width="0.8"/>
  </g><g transform="translate(291.3435,693.0648) rotate(2.25)">
    <rect x="-29.195" y="-40.87" width="58.39" height="81.74" rx="3.5" fill="#f8fafc" stroke="#111" stroke-width="1"/>
    <rect x="-26.195" y="-37.87" width="12.8458" height="14.713199999999999" rx="1" fill="none" stroke="#111" stroke-opacity="0.35" stroke-width="0.8"/>
  </g><g transform="translate(323.45799999999997,693.4398) rotate(3)">
    <rect x="-29.195" y="-40.87" width="58.39" height="81.74" rx="3.5" fill="#f8fafc" stroke="#111" stroke-width="1"/>
    <rect x="-26.195" y="-37.87" width="12.8458" height="14.713199999999999" rx="1" fill="none" stroke="#111" stroke-opacity="0.35" stroke-width="0.8"/>
  </g><text x="8" y="836" font-size="7.5" fill="#94a3b8" font-family="ui-monospace,Consolas,monospace">hand 58.39×81.74  trick 53.28×74.59  lift 26</text>
  </g>
  <g transform="translate(454,64)">
    <text x="0" y="-6" font-size="11" font-family="system-ui,sans-serif" font-weight="600" fill="#1e293b">PROPOSED V2</text>
    <rect x="-1" y="-1" width="392" height="846" fill="none" stroke="#94a3b8" stroke-width="1"/>
    <rect x="0" y="0" width="390" height="844" fill="#111827"/><rect x="0" y="0" width="390" height="76" fill="#1d4ed8" fill-opacity="0.45" stroke="#93c5fd" stroke-width="1.2"/>
  <text x="3" y="11" font-size="8" font-family="ui-monospace,Consolas,monospace" fill="#93c5fd">HUD</text><rect x="8" y="6" width="70" height="34" rx="4" fill="#0f172a" stroke="#64748b"/>
  <text x="43" y="19" text-anchor="middle" font-size="8" fill="#94a3b8">NÓS</text>
  <text x="43" y="32" text-anchor="middle" font-size="12" fill="#e2e8f0" font-weight="700">42</text><rect x="160" y="6" width="70" height="34" rx="4" fill="#0f172a" stroke="#64748b"/>
  <text x="195" y="19" text-anchor="middle" font-size="8" fill="#94a3b8">Vaza</text>
  <text x="195" y="32" text-anchor="middle" font-size="12" fill="#e2e8f0" font-weight="700">3/10</text><rect x="312" y="6" width="70" height="34" rx="4" fill="#0f172a" stroke="#64748b"/>
  <text x="347" y="19" text-anchor="middle" font-size="8" fill="#94a3b8">ELES</text>
  <text x="347" y="32" text-anchor="middle" font-size="12" fill="#e2e8f0" font-weight="700">31</text><rect x="8" y="44" width="374" height="24" rx="4" fill="#0f172a" stroke="#475569"/>
    <text x="195" y="60" text-anchor="middle" font-size="9" fill="#e2e8f0">Trunfo ♥ · Ronda 2 · Meta 4</text><rect x="12" y="80" width="366" height="616" fill="#0f766e" fill-opacity="0.5" stroke="#5eead4" stroke-width="1.2"/>
  <text x="15" y="91" font-size="8" font-family="ui-monospace,Consolas,monospace" fill="#5eead4">felt</text><rect x="66" y="94" width="258" height="72" fill="#4c1d95" fill-opacity="0.2" stroke="#c4b5fd" stroke-width="1.2"/>
  <text x="69" y="105" font-size="8" font-family="ui-monospace,Consolas,monospace" fill="#c4b5fd">N</text><rect x="20" y="269" width="68" height="230" fill="#4c1d95" fill-opacity="0.2" stroke="#c4b5fd" stroke-width="1.2"/>
  <text x="23" y="280" font-size="8" font-family="ui-monospace,Consolas,monospace" fill="#c4b5fd">W</text><rect x="302" y="269" width="68" height="230" fill="#4c1d95" fill-opacity="0.2" stroke="#c4b5fd" stroke-width="1.2"/>
  <text x="305" y="280" font-size="8" font-family="ui-monospace,Consolas,monospace" fill="#c4b5fd">E</text><rect x="122" y="602" width="146" height="48" fill="#4c1d95" fill-opacity="0.25" stroke="#c4b5fd" stroke-width="1.2"/>
  <text x="125" y="613" font-size="8" font-family="ui-monospace,Consolas,monospace" fill="#c4b5fd">S</text><rect x="110" y="289" width="170" height="190" fill="#854d0e" fill-opacity="0.18" stroke="#fcd34d" stroke-width="1.2"/>
  <text x="113" y="300" font-size="8" font-family="ui-monospace,Consolas,monospace" fill="#fcd34d">trick</text><rect x="8" y="656" width="374" height="136" fill="#065f46" fill-opacity="0.22" stroke="#6ee7b7" stroke-width="1.2"/>
  <text x="11" y="667" font-size="8" font-family="ui-monospace,Consolas,monospace" fill="#6ee7b7">hand</text><rect x="0" y="792" width="390" height="52" fill="#334155" fill-opacity="0.35" stroke="#94a3b8" stroke-width="1.2"/>
  <text x="3" y="803" font-size="8" font-family="ui-monospace,Consolas,monospace" fill="#94a3b8">action</text><rect x="8" y="656" width="374" height="40" fill="#f43f5e" fill-opacity="0.12" stroke="#fb7185" stroke-dasharray="3 2"/>
    <text x="12" y="666" font-size="7" fill="#fda4af" font-family="ui-monospace,Consolas,monospace">hand∩felt 40px</text><g transform="translate(148.92000000000002,138.64) rotate(0)">
    <rect x="-15.299999999999999" y="-21.25" width="30.599999999999998" height="42.5" rx="3.5" fill="#1e3a5f" stroke="#93c5fd" stroke-width="1"/>
    <rect x="-12.299999999999999" y="-18.25" width="8" height="10" rx="1" fill="none" stroke="#93c5fd" stroke-opacity="0.35" stroke-width="0.8"/>
  </g><g transform="translate(160.44,138.64) rotate(0)">
    <rect x="-15.299999999999999" y="-21.25" width="30.599999999999998" height="42.5" rx="3.5" fill="#1e3a5f" stroke="#93c5fd" stroke-width="1"/>
    <rect x="-12.299999999999999" y="-18.25" width="8" height="10" rx="1" fill="none" stroke="#93c5fd" stroke-opacity="0.35" stroke-width="0.8"/>
  </g><g transform="translate(171.96,138.64) rotate(0)">
    <rect x="-15.299999999999999" y="-21.25" width="30.599999999999998" height="42.5" rx="3.5" fill="#1e3a5f" stroke="#93c5fd" stroke-width="1"/>
    <rect x="-12.299999999999999" y="-18.25" width="8" height="10" rx="1" fill="none" stroke="#93c5fd" stroke-opacity="0.35" stroke-width="0.8"/>
  </g><g transform="translate(183.48,138.64) rotate(0)">
    <rect x="-15.299999999999999" y="-21.25" width="30.599999999999998" height="42.5" rx="3.5" fill="#1e3a5f" stroke="#93c5fd" stroke-width="1"/>
    <rect x="-12.299999999999999" y="-18.25" width="8" height="10" rx="1" fill="none" stroke="#93c5fd" stroke-opacity="0.35" stroke-width="0.8"/>
  </g><g transform="translate(195,138.64) rotate(0)">
    <rect x="-15.299999999999999" y="-21.25" width="30.599999999999998" height="42.5" rx="3.5" fill="#1e3a5f" stroke="#93c5fd" stroke-width="1"/>
    <rect x="-12.299999999999999" y="-18.25" width="8" height="10" rx="1" fill="none" stroke="#93c5fd" stroke-opacity="0.35" stroke-width="0.8"/>
  </g><g transform="translate(206.52,138.64) rotate(0)">
    <rect x="-15.299999999999999" y="-21.25" width="30.599999999999998" height="42.5" rx="3.5" fill="#1e3a5f" stroke="#93c5fd" stroke-width="1"/>
    <rect x="-12.299999999999999" y="-18.25" width="8" height="10" rx="1" fill="none" stroke="#93c5fd" stroke-opacity="0.35" stroke-width="0.8"/>
  </g><g transform="translate(218.04,138.64) rotate(0)">
    <rect x="-15.299999999999999" y="-21.25" width="30.599999999999998" height="42.5" rx="3.5" fill="#1e3a5f" stroke="#93c5fd" stroke-width="1"/>
    <rect x="-12.299999999999999" y="-18.25" width="8" height="10" rx="1" fill="none" stroke="#93c5fd" stroke-opacity="0.35" stroke-width="0.8"/>
  </g><g transform="translate(229.56,138.64) rotate(0)">
    <rect x="-15.299999999999999" y="-21.25" width="30.599999999999998" height="42.5" rx="3.5" fill="#1e3a5f" stroke="#93c5fd" stroke-width="1"/>
    <rect x="-12.299999999999999" y="-18.25" width="8" height="10" rx="1" fill="none" stroke="#93c5fd" stroke-opacity="0.35" stroke-width="0.8"/>
  </g><g transform="translate(241.07999999999998,138.64) rotate(0)">
    <rect x="-15.299999999999999" y="-21.25" width="30.599999999999998" height="42.5" rx="3.5" fill="#1e3a5f" stroke="#93c5fd" stroke-width="1"/>
    <rect x="-12.299999999999999" y="-18.25" width="8" height="10" rx="1" fill="none" stroke="#93c5fd" stroke-opacity="0.35" stroke-width="0.8"/>
  </g><g transform="translate(54,304.5) rotate(0)">
    <rect x="-13.5" y="-18.75" width="27" height="37.5" rx="3.5" fill="#1e3a5f" stroke="#93c5fd" stroke-width="1"/>
    <rect x="-10.5" y="-15.75" width="8" height="10" rx="1" fill="none" stroke="#93c5fd" stroke-opacity="0.35" stroke-width="0.8"/>
  </g><g transform="translate(54,314.5) rotate(0)">
    <rect x="-13.5" y="-18.75" width="27" height="37.5" rx="3.5" fill="#1e3a5f" stroke="#93c5fd" stroke-width="1"/>
    <rect x="-10.5" y="-15.75" width="8" height="10" rx="1" fill="none" stroke="#93c5fd" stroke-opacity="0.35" stroke-width="0.8"/>
  </g><g transform="translate(54,324.5) rotate(0)">
    <rect x="-13.5" y="-18.75" width="27" height="37.5" rx="3.5" fill="#1e3a5f" stroke="#93c5fd" stroke-width="1"/>
    <rect x="-10.5" y="-15.75" width="8" height="10" rx="1" fill="none" stroke="#93c5fd" stroke-opacity="0.35" stroke-width="0.8"/>
  </g><g transform="translate(54,334.5) rotate(0)">
    <rect x="-13.5" y="-18.75" width="27" height="37.5" rx="3.5" fill="#1e3a5f" stroke="#93c5fd" stroke-width="1"/>
    <rect x="-10.5" y="-15.75" width="8" height="10" rx="1" fill="none" stroke="#93c5fd" stroke-opacity="0.35" stroke-width="0.8"/>
  </g><g transform="translate(54,344.5) rotate(0)">
    <rect x="-13.5" y="-18.75" width="27" height="37.5" rx="3.5" fill="#1e3a5f" stroke="#93c5fd" stroke-width="1"/>
    <rect x="-10.5" y="-15.75" width="8" height="10" rx="1" fill="none" stroke="#93c5fd" stroke-opacity="0.35" stroke-width="0.8"/>
  </g><g transform="translate(54,354.5) rotate(0)">
    <rect x="-13.5" y="-18.75" width="27" height="37.5" rx="3.5" fill="#1e3a5f" stroke="#93c5fd" stroke-width="1"/>
    <rect x="-10.5" y="-15.75" width="8" height="10" rx="1" fill="none" stroke="#93c5fd" stroke-opacity="0.35" stroke-width="0.8"/>
  </g><g transform="translate(54,364.5) rotate(0)">
    <rect x="-13.5" y="-18.75" width="27" height="37.5" rx="3.5" fill="#1e3a5f" stroke="#93c5fd" stroke-width="1"/>
    <rect x="-10.5" y="-15.75" width="8" height="10" rx="1" fill="none" stroke="#93c5fd" stroke-opacity="0.35" stroke-width="0.8"/>
  </g><g transform="translate(54,374.5) rotate(0)">
    <rect x="-13.5" y="-18.75" width="27" height="37.5" rx="3.5" fill="#1e3a5f" stroke="#93c5fd" stroke-width="1"/>
    <rect x="-10.5" y="-15.75" width="8" height="10" rx="1" fill="none" stroke="#93c5fd" stroke-opacity="0.35" stroke-width="0.8"/>
  </g><g transform="translate(54,384.5) rotate(0)">
    <rect x="-13.5" y="-18.75" width="27" height="37.5" rx="3.5" fill="#1e3a5f" stroke="#93c5fd" stroke-width="1"/>
    <rect x="-10.5" y="-15.75" width="8" height="10" rx="1" fill="none" stroke="#93c5fd" stroke-opacity="0.35" stroke-width="0.8"/>
  </g><g transform="translate(54,394.5) rotate(0)">
    <rect x="-13.5" y="-18.75" width="27" height="37.5" rx="3.5" fill="#1e3a5f" stroke="#93c5fd" stroke-width="1"/>
    <rect x="-10.5" y="-15.75" width="8" height="10" rx="1" fill="none" stroke="#93c5fd" stroke-opacity="0.35" stroke-width="0.8"/>
  </g><g transform="translate(336,304.5) rotate(0)">
    <rect x="-13.5" y="-18.75" width="27" height="37.5" rx="3.5" fill="#1e3a5f" stroke="#93c5fd" stroke-width="1"/>
    <rect x="-10.5" y="-15.75" width="8" height="10" rx="1" fill="none" stroke="#93c5fd" stroke-opacity="0.35" stroke-width="0.8"/>
  </g><g transform="translate(336,314.5) rotate(0)">
    <rect x="-13.5" y="-18.75" width="27" height="37.5" rx="3.5" fill="#1e3a5f" stroke="#93c5fd" stroke-width="1"/>
    <rect x="-10.5" y="-15.75" width="8" height="10" rx="1" fill="none" stroke="#93c5fd" stroke-opacity="0.35" stroke-width="0.8"/>
  </g><g transform="translate(336,324.5) rotate(0)">
    <rect x="-13.5" y="-18.75" width="27" height="37.5" rx="3.5" fill="#1e3a5f" stroke="#93c5fd" stroke-width="1"/>
    <rect x="-10.5" y="-15.75" width="8" height="10" rx="1" fill="none" stroke="#93c5fd" stroke-opacity="0.35" stroke-width="0.8"/>
  </g><g transform="translate(336,334.5) rotate(0)">
    <rect x="-13.5" y="-18.75" width="27" height="37.5" rx="3.5" fill="#1e3a5f" stroke="#93c5fd" stroke-width="1"/>
    <rect x="-10.5" y="-15.75" width="8" height="10" rx="1" fill="none" stroke="#93c5fd" stroke-opacity="0.35" stroke-width="0.8"/>
  </g><g transform="translate(336,344.5) rotate(0)">
    <rect x="-13.5" y="-18.75" width="27" height="37.5" rx="3.5" fill="#1e3a5f" stroke="#93c5fd" stroke-width="1"/>
    <rect x="-10.5" y="-15.75" width="8" height="10" rx="1" fill="none" stroke="#93c5fd" stroke-opacity="0.35" stroke-width="0.8"/>
  </g><g transform="translate(336,354.5) rotate(0)">
    <rect x="-13.5" y="-18.75" width="27" height="37.5" rx="3.5" fill="#1e3a5f" stroke="#93c5fd" stroke-width="1"/>
    <rect x="-10.5" y="-15.75" width="8" height="10" rx="1" fill="none" stroke="#93c5fd" stroke-opacity="0.35" stroke-width="0.8"/>
  </g><g transform="translate(336,364.5) rotate(0)">
    <rect x="-13.5" y="-18.75" width="27" height="37.5" rx="3.5" fill="#1e3a5f" stroke="#93c5fd" stroke-width="1"/>
    <rect x="-10.5" y="-15.75" width="8" height="10" rx="1" fill="none" stroke="#93c5fd" stroke-opacity="0.35" stroke-width="0.8"/>
  </g><g transform="translate(336,374.5) rotate(0)">
    <rect x="-13.5" y="-18.75" width="27" height="37.5" rx="3.5" fill="#1e3a5f" stroke="#93c5fd" stroke-width="1"/>
    <rect x="-10.5" y="-15.75" width="8" height="10" rx="1" fill="none" stroke="#93c5fd" stroke-opacity="0.35" stroke-width="0.8"/>
  </g><g transform="translate(336,384.5) rotate(0)">
    <rect x="-13.5" y="-18.75" width="27" height="37.5" rx="3.5" fill="#1e3a5f" stroke="#93c5fd" stroke-width="1"/>
    <rect x="-10.5" y="-15.75" width="8" height="10" rx="1" fill="none" stroke="#93c5fd" stroke-opacity="0.35" stroke-width="0.8"/>
  </g><g transform="translate(336,394.5) rotate(0)">
    <rect x="-13.5" y="-18.75" width="27" height="37.5" rx="3.5" fill="#1e3a5f" stroke="#93c5fd" stroke-width="1"/>
    <rect x="-10.5" y="-15.75" width="8" height="10" rx="1" fill="none" stroke="#93c5fd" stroke-opacity="0.35" stroke-width="0.8"/>
  </g><rect x="135" y="113" width="120" height="34" rx="6" fill="#1c1917" stroke="#d4a017" stroke-width="1.5"/>
  <text x="195" y="134" text-anchor="middle" font-size="9" font-family="system-ui,sans-serif" fill="#f5e6c8">Player 3</text><rect x="22.72" y="367" width="62.56" height="34" rx="6" fill="#1c1917" stroke="#d4a017" stroke-width="1.5"/>
  <text x="54" y="388" text-anchor="middle" font-size="9" font-family="system-ui,sans-serif" fill="#f5e6c8">Player 2</text><rect x="304.72" y="367" width="62.56" height="34" rx="6" fill="#1c1917" stroke="#d4a017" stroke-width="1.5"/>
  <text x="336" y="388" text-anchor="middle" font-size="9" font-family="system-ui,sans-serif" fill="#f5e6c8">Player 4</text><rect x="135" y="612.8" width="120" height="26.400000000000002" rx="6" fill="#1c1917" stroke="#d4a017" stroke-width="1.5"/>
  <text x="195" y="630" text-anchor="middle" font-size="9" font-family="system-ui,sans-serif" fill="#f5e6c8">Player 1</text><g transform="translate(195,429) rotate(0)">
    <rect x="-29" y="-40.5" width="58" height="81" rx="3.5" fill="#fef3c7" stroke="#92400e" stroke-width="1"/>
    <rect x="-26" y="-37.5" width="12.76" height="14.58" rx="1" fill="none" stroke="#92400e" stroke-opacity="0.35" stroke-width="0.8"/>
  </g><text x="195" y="300" text-anchor="middle" font-size="7" fill="#fde68a" font-family="ui-monospace,Consolas,monospace">margin 10×10</text><g transform="translate(58.599999999999994,736.38) rotate(-3)">
    <rect x="-31" y="-43.5" width="62" height="87" rx="3.5" fill="#f8fafc" stroke="#111" stroke-width="1"/>
    <rect x="-28" y="-40.5" width="13.64" height="15.66" rx="1" fill="none" stroke="#111" stroke-opacity="0.35" stroke-width="0.8"/>
  </g><g transform="translate(92.69999999999999,736.005) rotate(-2.25)">
    <rect x="-31" y="-43.5" width="62" height="87" rx="3.5" fill="#f8fafc" stroke="#111" stroke-width="1"/>
    <rect x="-28" y="-40.5" width="13.64" height="15.66" rx="1" fill="none" stroke="#111" stroke-opacity="0.35" stroke-width="0.8"/>
  </g><g transform="translate(126.8,735.63) rotate(-1.5)">
    <rect x="-31" y="-43.5" width="62" height="87" rx="3.5" fill="#f8fafc" stroke="#111" stroke-width="1"/>
    <rect x="-28" y="-40.5" width="13.64" height="15.66" rx="1" fill="none" stroke="#111" stroke-opacity="0.35" stroke-width="0.8"/>
  </g><g transform="translate(160.9,735.255) rotate(-0.75)">
    <rect x="-31" y="-43.5" width="62" height="87" rx="3.5" fill="#f8fafc" stroke="#111" stroke-width="1"/>
    <rect x="-28" y="-40.5" width="13.64" height="15.66" rx="1" fill="none" stroke="#111" stroke-opacity="0.35" stroke-width="0.8"/>
  </g><g transform="translate(195,734.88) rotate(0)">
    <rect x="-31" y="-43.5" width="62" height="87" rx="3.5" fill="#f8fafc" stroke="#111" stroke-width="1"/>
    <rect x="-28" y="-40.5" width="13.64" height="15.66" rx="1" fill="none" stroke="#111" stroke-opacity="0.35" stroke-width="0.8"/>
  </g><g transform="translate(229.1,735.255) rotate(0.75)">
    <rect x="-31" y="-43.5" width="62" height="87" rx="3.5" fill="#f8fafc" stroke="#111" stroke-width="1"/>
    <rect x="-28" y="-40.5" width="13.64" height="15.66" rx="1" fill="none" stroke="#111" stroke-opacity="0.35" stroke-width="0.8"/>
  </g><g transform="translate(263.20000000000005,735.63) rotate(1.5)">
    <rect x="-31" y="-43.5" width="62" height="87" rx="3.5" fill="#f8fafc" stroke="#111" stroke-width="1"/>
    <rect x="-28" y="-40.5" width="13.64" height="15.66" rx="1" fill="none" stroke="#111" stroke-opacity="0.35" stroke-width="0.8"/>
  </g><g transform="translate(297.3,736.005) rotate(2.25)">
    <rect x="-31" y="-43.5" width="62" height="87" rx="3.5" fill="#f8fafc" stroke="#111" stroke-width="1"/>
    <rect x="-28" y="-40.5" width="13.64" height="15.66" rx="1" fill="none" stroke="#111" stroke-opacity="0.35" stroke-width="0.8"/>
  </g><g transform="translate(331.4,736.38) rotate(3)">
    <rect x="-31" y="-43.5" width="62" height="87" rx="3.5" fill="#f8fafc" stroke="#111" stroke-width="1"/>
    <rect x="-28" y="-40.5" width="13.64" height="15.66" rx="1" fill="none" stroke="#111" stroke-opacity="0.35" stroke-width="0.8"/>
  </g><text x="8" y="836" font-size="7.5" fill="#94a3b8" font-family="ui-monospace,Consolas,monospace">hand 62×87  trick 58×81  lift 18</text>
  </g>
</svg>
